HIERARCHY
ROOT Hips
{
	OFFSET 0.000000 71.427986 0.000000
	CHANNELS 6 Xposition Yposition Zposition Xrotation Yrotation Zrotation
	JOINT Pelvis
	{
		OFFSET 0.000000 0.000000 0.000000
		CHANNELS 3 Xrotation Yrotation Zrotation
		JOINT LeftUpLeg
		{
			OFFSET 6.797100 -2.508499 -1.318700
			CHANNELS 3 Xrotation Yrotation Zrotation
			JOINT LeftLeg
			{
				OFFSET 0.069008 -29.241863 0.690200
				CHANNELS 3 Xrotation Yrotation Zrotation
				JOINT LeftFoot
				{
					OFFSET -0.069008 -29.568123 -0.266800
					CHANNELS 3 Xrotation Yrotation Zrotation
					JOINT LeftToeBase
					{
						OFFSET 3.145500 -8.631000 16.059900
						CHANNELS 3 Xrotation Yrotation Zrotation
						End Site
						{
							OFFSET 0.000000 18.501587 0.000000
						}
					}
				}
			}
			JOINT Left_ShortSleeve
			{
				OFFSET 0.265923 -10.480953 1.153800
				CHANNELS 3 Xrotation Yrotation Zrotation
				End Site
				{
					OFFSET 1.725763 19.823879 0.000000
				}
			}
		}
		JOINT RightUpLeg
		{
			OFFSET -6.797100 -2.508499 -1.318700
			CHANNELS 3 Xrotation Yrotation Zrotation
			JOINT RightLeg
			{
				OFFSET -0.082453 -29.241932 0.688000
				CHANNELS 3 Xrotation Yrotation Zrotation
				JOINT RightFoot
				{
					OFFSET 0.082453 -29.568058 -0.264600
					CHANNELS 3 Xrotation Yrotation Zrotation
					JOINT RightToeBase
					{
						OFFSET -3.115300 -8.682800 16.113400
						CHANNELS 3 Xrotation Yrotation Zrotation
						End Site
						{
							OFFSET 0.000000 18.567114 0.000000
						}
					}
				}
			}
			JOINT Right_ShortSleeve
			{
				OFFSET -0.265923 -10.480953 1.153800
				CHANNELS 3 Xrotation Yrotation Zrotation
				End Site
				{
					OFFSET -1.725766 19.823910 0.000000
				}
			}
		}
	}
	JOINT Spine
	{
		OFFSET 0.000000 13.368103 0.470500
		CHANNELS 3 Xrotation Yrotation Zrotation
		JOINT Spine1
		{
			OFFSET 0.147000 13.837402 0.538800
			CHANNELS 3 Xrotation Yrotation Zrotation
			JOINT Spine2
			{
				OFFSET 0.168000 16.242897 -1.435500
				CHANNELS 3 Xrotation Yrotation Zrotation
				JOINT Neck
				{
					OFFSET 0.217200 18.631500 -1.679100
					CHANNELS 3 Xrotation Yrotation Zrotation
					JOINT Head
					{
						OFFSET 0.000000 6.599396 1.385900
						CHANNELS 3 Xrotation Yrotation Zrotation
						JOINT Hat
						{
							OFFSET -0.532200 27.220596 -10.096100
							CHANNELS 3 Xrotation Yrotation Zrotation
							End Site
							{
								OFFSET 0.000000 22.029861 0.000000
							}
						}
						JOINT HairD
						{
							OFFSET -10.777400 17.437393 -1.325900
							CHANNELS 3 Xrotation Yrotation Zrotation
							JOINT HairD1
							{
								OFFSET -3.290299 -11.051193 1.062200
								CHANNELS 3 Xrotation Yrotation Zrotation
								End Site
								{
									OFFSET 0.000000 11.579437 0.000000
								}
							}
						}
						JOINT HairB
						{
							OFFSET -10.777400 17.437393 1.467900
							CHANNELS 3 Xrotation Yrotation Zrotation
							JOINT HairB1
							{
								OFFSET -1.561200 -12.956299 3.590200
								CHANNELS 3 Xrotation Yrotation Zrotation
								End Site
								{
									OFFSET 0.000000 13.534866 0.000000
								}
							}
						}
						JOINT HairA
						{
							OFFSET 9.713100 17.437393 1.467900
							CHANNELS 3 Xrotation Yrotation Zrotation
							JOINT HairA1
							{
								OFFSET 1.561200 -12.956299 3.590200
								CHANNELS 3 Xrotation Yrotation Zrotation
								End Site
								{
									OFFSET 0.000000 13.534866 0.000000
								}
							}
						}
						JOINT HairC
						{
							OFFSET 9.713100 17.437393 -1.325900
							CHANNELS 3 Xrotation Yrotation Zrotation
							JOINT HairC1
							{
								OFFSET 3.290300 -11.051193 1.062200
								CHANNELS 3 Xrotation Yrotation Zrotation
								End Site
								{
									OFFSET 0.000000 11.579437 0.000000
								}
							}
						}
					}
				}
				JOINT LeftShoulder
				{
					OFFSET 5.101800 15.108002 -2.763700
					CHANNELS 3 Xrotation Yrotation Zrotation
					JOINT LeftArm
					{
						OFFSET 9.825497 2.506317 -1.597400
						CHANNELS 3 Xrotation Yrotation Zrotation
						JOINT LeftForeArm
						{
							OFFSET 21.966244 0.000000 0.000000
							CHANNELS 3 Xrotation Yrotation Zrotation
							JOINT LeftHand
							{
								OFFSET 33.879036 0.000000 0.000000
								CHANNELS 3 Xrotation Yrotation Zrotation
								JOINT LeftHandThumb1
								{
									OFFSET 6.715286 -2.359680 3.363841
									CHANNELS 3 Xrotation Yrotation Zrotation
									JOINT LeftHandThumb2
									{
										OFFSET 2.507072 -1.447464 1.447461
										CHANNELS 3 Xrotation Yrotation Zrotation
										JOINT LeftHandThumb3
										{
											OFFSET 2.898338 -1.673355 1.673357
											CHANNELS 3 Xrotation Yrotation Zrotation
											End Site
											{
												OFFSET -0.295959 3.727692 -0.131651
											}
										}
									}
								}
								JOINT LeftHandIndex1
								{
									OFFSET 14.190811 -0.254547 3.840278
									CHANNELS 3 Xrotation Yrotation Zrotation
									JOINT LeftHandIndex2
									{
										OFFSET 3.551727 0.000000 -0.000000
										CHANNELS 3 Xrotation Yrotation Zrotation
										JOINT LeftHandIndex3
										{
											OFFSET 2.894196 0.000000 0.000000
											CHANNELS 3 Xrotation Yrotation Zrotation
											End Site
											{
												OFFSET -1.000603 2.690872 0.366626
											}
										}
									}
								}
								JOINT LeftHandMiddle1
								{
									OFFSET 13.776489 0.000000 0.000000
									CHANNELS 3 Xrotation Yrotation Zrotation
									JOINT LeftHandMiddle2
									{
										OFFSET 3.438232 0.000000 0.000000
										CHANNELS 3 Xrotation Yrotation Zrotation
										JOINT LeftHandMiddle3
										{
											OFFSET 3.691551 0.000000 0.000000
											CHANNELS 3 Xrotation Yrotation Zrotation
											End Site
											{
												OFFSET -1.082298 3.499527 0.457670
											}
										}
									}
								}
								JOINT LeftHandRing1
								{
									OFFSET 13.966164 -0.268127 -3.067488
									CHANNELS 3 Xrotation Yrotation Zrotation
									JOINT LeftHandRing2
									{
										OFFSET 3.162567 0.000000 0.000000
										CHANNELS 3 Xrotation Yrotation Zrotation
										JOINT LeftHandRing3
										{
											OFFSET 3.324348 0.000000 0.000000
											CHANNELS 3 Xrotation Yrotation Zrotation
											End Site
											{
												OFFSET -0.861900 3.184998 0.405154
											}
										}
									}
								}
								JOINT LeftHandPinky1
								{
									OFFSET 13.131393 -0.168503 -5.746925
									CHANNELS 3 Xrotation Yrotation Zrotation
									JOINT LeftHandPinky2
									{
										OFFSET 2.849182 0.000000 0.000000
										CHANNELS 3 Xrotation Yrotation Zrotation
										JOINT LeftHandPinky3
										{
											OFFSET 2.805038 0.000000 0.000000
											CHANNELS 3 Xrotation Yrotation Zrotation
											End Site
											{
												OFFSET -0.882500 2.642609 0.325652
											}
										}
									}
								}
							}
							JOINT Left_Sleeve
							{
								OFFSET 6.592125 -0.646545 0.805568
								CHANNELS 3 Xrotation Yrotation Zrotation
								End Site
								{
									OFFSET -0.000179 20.275787 -0.000000
								}
							}
						}
					}
				}
				JOINT RightShoulder
				{
					OFFSET -5.731700 15.108002 -2.763700
					CHANNELS 3 Xrotation Yrotation Zrotation
					JOINT RightArm
					{
						OFFSET -9.825497 2.506317 -1.597400
						CHANNELS 3 Xrotation Yrotation Zrotation
						JOINT RightForeArm
						{
							OFFSET -21.966242 0.000000 0.000000
							CHANNELS 3 Xrotation Yrotation Zrotation
							JOINT RightHand
							{
								OFFSET -33.879032 0.000000 0.000000
								CHANNELS 3 Xrotation Yrotation Zrotation
								JOINT RightHandThumb1
								{
									OFFSET -6.715286 -2.359680 3.363841
									CHANNELS 3 Xrotation Yrotation Zrotation
									JOINT RightHandThumb2
									{
										OFFSET -2.507072 -1.447464 1.447461
										CHANNELS 3 Xrotation Yrotation Zrotation
										JOINT RightHandThumb3
										{
											OFFSET -2.898338 -1.673355 1.673357
											CHANNELS 3 Xrotation Yrotation Zrotation
											End Site
											{
												OFFSET 0.295959 3.727692 -0.131651
											}
										}
									}
								}
								JOINT RightHandIndex1
								{
									OFFSET -14.190811 -0.254547 3.840278
									CHANNELS 3 Xrotation Yrotation Zrotation
									JOINT RightHandIndex2
									{
										OFFSET -3.551727 0.000000 -0.000000
										CHANNELS 3 Xrotation Yrotation Zrotation
										JOINT RightHandIndex3
										{
											OFFSET -2.894196 0.000000 0.000000
											CHANNELS 3 Xrotation Yrotation Zrotation
											End Site
											{
												OFFSET 1.000603 2.690872 0.366626
											}
										}
									}
								}
								JOINT RightHandMiddle1
								{
									OFFSET -13.776489 0.000000 0.000000
									CHANNELS 3 Xrotation Yrotation Zrotation
									JOINT RightHandMiddle2
									{
										OFFSET -3.438232 0.000000 0.000000
										CHANNELS 3 Xrotation Yrotation Zrotation
										JOINT RightHandMiddle3
										{
											OFFSET -3.691551 0.000000 0.000000
											CHANNELS 3 Xrotation Yrotation Zrotation
											End Site
											{
												OFFSET 1.082298 3.499527 0.457670
											}
										}
									}
								}
								JOINT RightHandRing1
								{
									OFFSET -13.966164 -0.268127 -3.067488
									CHANNELS 3 Xrotation Yrotation Zrotation
									JOINT RightHandRing2
									{
										OFFSET -3.162567 0.000000 0.000000
										CHANNELS 3 Xrotation Yrotation Zrotation
										JOINT RightHandRing3
										{
											OFFSET -3.324348 0.000000 0.000000
											CHANNELS 3 Xrotation Yrotation Zrotation
											End Site
											{
												OFFSET 0.861900 3.184998 0.405154
											}
										}
									}
								}
								JOINT RightHandPinky1
								{
									OFFSET -13.131393 -0.168503 -5.746925
									CHANNELS 3 Xrotation Yrotation Zrotation
									JOINT RightHandPinky2
									{
										OFFSET -2.849182 0.000000 0.000000
										CHANNELS 3 Xrotation Yrotation Zrotation
										JOINT RightHandPinky3
										{
											OFFSET -2.805038 0.000000 0.000000
											CHANNELS 3 Xrotation Yrotation Zrotation
											End Site
											{
												OFFSET 0.882500 2.642609 0.325652
											}
										}
									}
								}
							}
							JOINT Right_Sleeve
							{
								OFFSET -6.592125 -0.646545 0.805568
								CHANNELS 3 Xrotation Yrotation Zrotation
								End Site
								{
									OFFSET 0.000179 20.275787 -0.000000
								}
							}
						}
					}
				}
				JOINT Bind_Right_JacketString
				{
					OFFSET -3.534800 11.969597 7.200700
					CHANNELS 3 Xrotation Yrotation Zrotation
					JOINT Bind_Right_JacketString1
					{
						OFFSET -0.319900 -6.102600 2.794100
						CHANNELS 3 Xrotation Yrotation Zrotation
						End Site
						{
							OFFSET 0.000000 6.719452 0.000000
						}
					}
				}
				JOINT Bind_Left_JacketString
				{
					OFFSET 2.904800 11.969597 7.200700
					CHANNELS 3 Xrotation Yrotation Zrotation
					JOINT Bind_Left_JacketString1
					{
						OFFSET 0.364800 -5.904503 3.186800
						CHANNELS 3 Xrotation Yrotation Zrotation
						End Site
						{
							OFFSET 0.000000 6.719513 0.000000
						}
					}
				}
				JOINT HairE
				{
					OFFSET 5.915200 17.612701 -11.592200
					CHANNELS 3 Xrotation Yrotation Zrotation
					JOINT HairE1
					{
						OFFSET 0.289200 -7.171898 -1.284500
						CHANNELS 3 Xrotation Yrotation Zrotation
						End Site
						{
							OFFSET 0.000000 7.291756 0.000000
						}
					}
				}
				JOINT HairF
				{
					OFFSET -0.864800 17.612701 -11.592200
					CHANNELS 3 Xrotation Yrotation Zrotation
					JOINT HairF1
					{
						OFFSET 0.000000 -14.087097 -2.127501
						CHANNELS 3 Xrotation Yrotation Zrotation
						End Site
						{
							OFFSET 0.000000 14.246841 0.000000
						}
					}
				}
				JOINT HairG
				{
					OFFSET -8.087700 17.612701 -11.592200
					CHANNELS 3 Xrotation Yrotation Zrotation
					JOINT HairG1
					{
						OFFSET -0.293600 -6.081398 -0.910100
						CHANNELS 3 Xrotation Yrotation Zrotation
						End Site
						{
							OFFSET 0.000000 6.156120 0.000000
						}
					}
				}
			}
		}
	}
	JOINT Pouch
	{
		OFFSET 0.000000 4.394501 10.847300
		CHANNELS 3 Xrotation Yrotation Zrotation
		End Site
		{
			OFFSET 0.000000 21.880577 0.000000
		}
	}
	JOINT Bag
	{
		OFFSET -13.229000 4.813004 -0.593300
		CHANNELS 3 Xrotation Yrotation Zrotation
		End Site
		{
			OFFSET 0.000000 21.880577 0.000000
		}
	}
	JOINT OccupyGuyFacialAnim_Joint
	{
		OFFSET 1.000000 -70.206398 -1.655000
		CHANNELS 3 Xrotation Yrotation Zrotation
		End Site
		{
			OFFSET 0.000000 21.880577 0.000000
		}
	}
}
MOTION
Frames: 4
Frame Time: 0.033333
8.149560 69.070992 0.161923 -7.751980 24.397777 7.921056 0.000000 -0.000001 -0.000000 -8.515524 10.396371 2.253321 24.655233 5.729406 1.805998 -5.924557 17.808395 -6.922499 -0.000000 -0.000000 0.000000 0.000000 0.000003 0.000001 -6.835819 -47.543038 -21.788141 26.284789 0.625334 -6.558279 -16.888572 -10.633098 14.610714 0.000000 -0.000003 0.000000 -0.000000 -0.000001 -0.000001 4.546213 7.216075 -0.858850 1.347735 2.706927 -0.561710 1.132179 -2.810639 -0.497629 3.052755 18.535778 -0.984171 3.717034 -15.403603 1.108515 0.000000 -0.000002 0.000000 0.000000 -0.000002 0.000000 0.000000 -0.000002 0.000000 0.000000 -0.000002 0.000000 0.000000 -0.000004 0.000000 0.000000 -0.000002 0.000000 0.000000 -0.000004 0.000000 0.000000 -0.000002 0.000000 0.000000 -0.000002 0.000000 0.156796 -12.684413 -17.418808 4.490154 0.776985 -41.243602 -0.010584 -91.090818 -0.010380 -122.668900 -2.231895 16.120947 -12.800101 -17.470099 4.121648 1.012360 0.758790 -1.430639 0.000001 0.000002 0.000000 -3.532531 4.254409 -63.954592 3.402069 5.315500 -65.218942 0.000001 0.000000 0.000002 2.434391 7.296071 -69.364089 3.297842 5.266344 -64.088662 -0.000000 0.000000 -0.000001 4.717016 8.075490 -77.582275 2.056299 4.456882 -49.517676 0.000001 0.000001 -0.000002 6.410338 8.363765 -80.414570 1.722714 4.149898 -45.074403 0.000001 0.000000 0.000001 0.000000 -0.000001 -0.000001 0.856616 18.644296 11.104851 11.928656 23.001109 36.155162 -0.000090 101.464960 0.000078 -36.900650 -18.323302 19.317435 20.470553 7.475551 18.843592 4.151722 -12.160920 -33.847979 -0.000001 -0.000001 -0.000000 -0.887077 1.427986 12.684531 1.917417 -3.767443 53.934329 0.000000 0.000000 0.000004 0.770891 -5.199605 54.618813 5.563884 -4.568234 101.238601 -0.000000 0.000000 -0.000002 6.934453 -8.544256 63.908755 2.909308 -4.317402 67.934714 -0.000000 0.000001 -0.000002 8.373376 -8.171779 73.989909 2.173692 -3.940964 57.745397 0.000002 0.000001 -0.000001 0.000002 -0.000000 0.000000 -0.000000 -0.000001 -0.000000 -0.000000 -0.000001 -0.000000 -0.000000 -0.000001 -0.000000 -0.000000 -0.000001 -0.000000 -0.000000 -0.000001 -0.000000 -0.000000 -0.000001 -0.000000 -0.000000 -0.000001 -0.000000 -0.000000 -0.000001 -0.000000 -0.000000 -0.000001 -0.000000 -0.000000 -0.000001 -0.000000 0.000000 -0.000001 -0.000000 0.000000 -0.000001 -0.000000 0.000000 -0.000001 -0.000000 
8.578416 69.120094 0.276990 -7.791841 24.925418 8.011125 -0.000000 0.000001 0.000000 -8.238163 10.482081 1.886495 24.586649 6.151127 1.799766 -6.311947 16.895730 -6.633246 -0.000000 -0.000000 -0.000000 0.000002 0.000002 0.000001 -6.607416 -44.255104 -21.478539 28.221995 0.298425 -6.143110 -17.013187 -10.389945 14.689819 -0.000000 0.000001 -0.000000 -0.000000 0.000003 -0.000000 4.556753 6.971372 -0.895527 1.347508 2.612057 -0.562511 1.143959 -2.631769 -0.496117 2.994572 17.937176 -0.859972 3.823341 -15.377290 1.112904 0.000000 -0.000000 0.000000 0.000000 -0.000000 0.000000 0.000000 -0.000000 -0.000000 0.000000 -0.000000 -0.000000 0.000000 -0.000000 -0.000000 0.000000 -0.000000 -0.000000 0.000000 -0.000000 -0.000000 0.000000 -0.000000 0.000000 0.000000 -0.000000 0.000000 0.156796 -12.684409 -17.418806 4.402705 0.950687 -41.066936 -0.028221 -91.580488 -0.028347 -122.475851 -2.411923 17.295917 -12.800098 -17.470102 4.121642 1.012361 0.758792 -1.430639 0.000000 -0.000001 0.000002 -3.532530 4.254404 -63.954592 3.402071 5.315495 -65.218942 0.000001 0.000001 -0.000002 2.434392 7.296069 -69.364082 3.297842 5.266344 -64.088662 0.000001 0.000000 0.000002 4.717017 8.075491 -77.582275 2.056298 4.456885 -49.517676 -0.000001 0.000000 0.000000 6.410337 8.363762 -80.414570 1.722714 4.149894 -45.074399 0.000002 -0.000000 0.000001 -0.000004 0.000000 0.000001 0.821024 18.696026 11.234763 11.835055 22.923028 36.133825 -0.000068 101.246626 0.000069 -37.626631 -18.309289 19.544516 20.470558 7.475552 18.843589 4.151725 -12.160917 -33.847976 -0.000000 -0.000001 0.000000 -0.887077 1.427986 12.684530 1.917417 -3.767442 53.934322 0.000001 -0.000001 0.000002 0.770892 -5.199606 54.618813 5.563883 -4.568235 101.238601 -0.000000 -0.000002 -0.000003 6.934453 -8.544256 63.908755 2.909306 -4.317403 67.934714 0.000004 -0.000001 0.000002 8.373376 -8.171780 73.989909 2.173689 -3.940964 57.745397 -0.000000 -0.000000 0.000002 0.000002 0.000000 -0.000001 -0.000000 0.000002 0.000000 -0.000000 -0.000002 -0.000000 -0.000000 0.000002 0.000000 -0.000000 0.000002 0.000000 -0.000000 0.000002 0.000000 -0.000000 -0.000002 -0.000000 -0.000000 0.000002 0.000000 -0.000000 0.000002 0.000000 -0.000000 0.000002 0.000000 -0.000000 -0.000002 -0.000000 -0.000000 0.000001 0.000000 -0.000000 0.000001 0.000000 -0.000000 0.000001 0.000000 
8.921988 69.158737 0.361221 -7.837757 25.460835 8.098640 0.000000 -0.000001 -0.000000 -8.033044 10.550107 1.593016 24.517852 6.629535 1.789756 -6.602199 15.908277 -6.401902 0.000000 0.000002 -0.000000 -0.000001 0.000001 -0.000000 -6.233986 -40.436424 -20.880686 30.009560 -0.028507 -5.554813 -17.241494 -10.055616 14.535124 0.000000 -0.000001 0.000000 -0.000000 -0.000000 0.000000 4.579402 6.735032 -0.964594 1.347665 2.518695 -0.563353 1.156337 -2.440520 -0.496122 2.938534 17.328277 -0.734040 3.931836 -15.326302 1.121391 0.000001 -0.000003 0.000000 0.000001 -0.000003 0.000000 0.000001 -0.000003 0.000000 0.000001 -0.000003 0.000000 0.000001 -0.000001 -0.000000 0.000001 -0.000003 0.000000 0.000001 -0.000001 -0.000000 0.000001 -0.000003 0.000000 0.000001 -0.000003 0.000000 0.156796 -12.684414 -17.418808 4.308400 1.153801 -40.870752 0.120996 -92.066353 0.120771 -122.281806 -2.627400 18.366666 -12.800101 -17.470101 4.121649 1.012361 0.758797 -1.430642 0.000002 0.000002 0.000000 -3.532529 4.254408 -63.954592 3.402070 5.315497 -65.218942 0.000003 0.000001 -0.000002 2.434391 7.296073 -69.364089 3.297841 5.266346 -64.088662 0.000000 0.000001 0.000001 4.717016 8.075493 -77.582275 2.056302 4.456883 -49.517673 0.000001 0.000001 0.000000 6.410337 8.363762 -80.414570 1.722715 4.149897 -45.074396 0.000003 -0.000000 0.000003 0.000001 0.000000 0.000000 0.777618 18.755689 11.416175 11.660637 22.845875 36.166938 0.000167 100.968754 -0.000178 -38.189425 -18.286645 19.906824 20.470557 7.475550 18.843587 4.151724 -12.160916 -33.847983 0.000001 -0.000001 0.000000 -0.887078 1.427985 12.684530 1.917417 -3.767442 53.934326 -0.000001 -0.000001 0.000000 0.770891 -5.199606 54.618813 5.563886 -4.568235 101.238601 -0.000000 -0.000001 0.000001 6.934452 -8.544255 63.908755 2.909310 -4.317401 67.934714 -0.000000 -0.000001 0.000005 8.373376 -8.171781 73.989909 2.173687 -3.940967 57.745390 0.000001 0.000001 0.000001 0.000001 -0.000000 -0.000000 -0.000000 0.000003 0.000000 -0.000000 0.000002 0.000000 -0.000000 0.000003 0.000000 -0.000000 0.000003 0.000000 -0.000000 0.000003 0.000000 -0.000000 0.000002 0.000000 -0.000000 0.000003 0.000000 -0.000000 0.000003 0.000000 -0.000000 0.000003 0.000000 -0.000000 0.000002 0.000000 0.000000 -0.000001 -0.000000 0.000000 -0.000001 -0.000000 0.000000 -0.000001 -0.000000 
9.246260 69.198029 0.434263 -7.885958 26.001250 8.174924 0.000000 0.000001 0.000000 -7.833393 10.609352 1.326585 24.423896 7.129304 1.781829 -6.853361 14.893598 -6.192661 0.000000 0.000002 0.000000 0.000000 -0.000002 -0.000001 -5.915524 -36.470755 -20.132252 31.266246 -0.523833 -4.958181 -18.083822 -9.710494 14.210991 0.000000 -0.000000 0.000000 0.000000 0.000000 0.000000 4.601068 6.498022 -1.028151 1.348047 2.425553 -0.564481 1.169010 -2.247191 -0.499744 2.884708 16.709728 -0.606500 4.041951 -15.253172 1.134251 -0.000000 -0.000001 0.000000 -0.000000 -0.000001 0.000000 -0.000000 -0.000001 0.000000 -0.000000 -0.000001 0.000000 -0.000000 -0.000001 0.000000 -0.000000 -0.000001 0.000000 -0.000000 -0.000001 0.000000 -0.000000 -0.000001 0.000000 -0.000000 -0.000001 0.000000 0.156796 -12.684417 -17.418808 4.194644 1.314720 -40.688861 0.034891 -92.448659 0.034791 -122.094180 -2.804719 19.300921 -12.800098 -17.470101 4.121645 1.012359 0.758788 -1.430641 0.000002 -0.000000 0.000000 -3.532530 4.254407 -63.954586 3.402069 5.315502 -65.218942 0.000001 0.000001 -0.000002 2.434393 7.296071 -69.364089 3.297842 5.266344 -64.088669 -0.000003 -0.000000 -0.000001 4.717019 8.075491 -77.582275 2.056300 4.456883 -49.517680 -0.000002 0.000001 -0.000001 6.410339 8.363765 -80.414570 1.722717 4.149897 -45.074399 -0.000001 0.000000 0.000001 0.000001 -0.000001 -0.000000 0.734874 18.816246 11.603571 11.471325 22.774154 36.217095 -0.000063 100.668485 0.000070 -38.649701 -18.259440 20.279615 20.470558 7.475553 18.843590 4.151721 -12.160917 -33.847986 -0.000000 -0.000001 0.000000 -0.887079 1.427987 12.684531 1.917418 -3.767444 53.934333 0.000000 -0.000000 0.000000 0.770891 -5.199608 54.618806 5.563884 -4.568235 101.238608 0.000001 0.000001 -0.000002 6.934455 -8.544258 63.908755 2.909310 -4.317402 67.934714 0.000000 0.000002 -0.000001 8.373376 -8.171780 73.989909 2.173690 -3.940964 57.745397 0.000002 -0.000001 0.000000 -0.000001 0.000000 -0.000000 0.000000 -0.000003 -0.000000 0.000000 0.000002 -0.000000 0.000000 -0.000003 -0.000000 0.000000 -0.000003 -0.000000 0.000000 -0.000003 -0.000000 0.000000 0.000002 0.000000 0.000000 -0.000003 -0.000000 0.000000 -0.000003 -0.000000 0.000000 -0.000003 -0.000000 0.000000 0.000002 0.000000 0.000000 0.000001 0.000000 0.000000 0.000001 0.000000 0.000000 0.000001 0.000000 
